<?xml version="1.0" encoding="UTF-8" standalone="no"?><!DOCTYPE svg PUBLIC "-//W3C//DTD SVG 1.1//EN" "http://www.w3.org/Graphics/SVG/1.1/DTD/svg11.dtd"><svg width="100%" height="100%" viewBox="0 0 16 16" version="1.1" xmlns="http://www.w3.org/2000/svg" xmlns:xlink="http://www.w3.org/1999/xlink" xml:space="preserve" xmlns:serif="http://www.serif.com/" style="fill-rule:evenodd;clip-rule:evenodd;stroke-linejoin:round;stroke-miterlimit:1.41421;"><path d="M8.006,0c1.339,0 2.648,0.345 3.928,1.035c1.28,0.69 2.28,1.678 2.999,2.962c0.72,1.284 1.08,2.621 1.08,4.009c0,1.381 -0.354,2.705 -1.061,3.972c-0.707,1.267 -1.696,2.255 -2.968,2.962c-1.271,0.707 -2.597,1.06 -3.978,1.06c-1.388,0 -2.717,-0.353 -3.984,-1.06c-1.267,-0.707 -2.255,-1.695 -2.962,-2.962c-0.707,-1.267 -1.06,-2.591 -1.06,-3.972c0,-1.388 0.358,-2.725 1.073,-4.009c0.715,-1.284 1.713,-2.272 2.993,-2.962c1.28,-0.69 2.593,-1.035 3.94,-1.035Zm0,1.167c-1.146,0 -2.265,0.295 -3.357,0.885c-1.091,0.59 -1.945,1.432 -2.56,2.528c-0.614,1.096 -0.922,2.238 -0.922,3.426c0,1.18 0.301,2.311 0.904,3.395c0.602,1.083 1.447,1.926 2.534,2.528c1.088,0.603 2.222,0.904 3.401,0.904c1.18,0 2.313,-0.301 3.401,-0.904c1.088,-0.602 1.933,-1.445 2.535,-2.528c0.602,-1.084 0.903,-2.215 0.903,-3.395c0,-1.188 -0.307,-2.33 -0.922,-3.426c-0.615,-1.096 -1.468,-1.938 -2.56,-2.528c-1.092,-0.59 -2.211,-0.885 -3.357,-0.885Zm-3.074,4.166c0.284,0 0.525,0.099 0.721,0.295c0.197,0.197 0.295,0.437 0.295,0.722c0,0.276 -0.098,0.514 -0.295,0.715c-0.196,0.201 -0.437,0.301 -0.721,0.301c-0.276,0 -0.515,-0.1 -0.716,-0.301c-0.2,-0.201 -0.301,-0.439 -0.301,-0.715c0,-0.285 0.101,-0.525 0.301,-0.722c0.201,-0.196 0.44,-0.295 0.716,-0.295Zm6.136,0c0.285,0 0.525,0.099 0.722,0.295c0.196,0.197 0.295,0.437 0.295,0.722c0,0.276 -0.099,0.514 -0.295,0.715c-0.197,0.201 -0.437,0.301 -0.722,0.301c-0.276,0 -0.514,-0.1 -0.715,-0.301c-0.201,-0.201 -0.301,-0.439 -0.301,-0.715c0,-0.285 0.098,-0.525 0.295,-0.722c0.196,-0.196 0.437,-0.295 0.721,-0.295Zm-6.751,5.246l0.778,-0.452c0.661,1.205 1.631,1.807 2.911,1.807c1.28,0 2.247,-0.602 2.899,-1.807l0.791,0.452c-0.419,0.795 -0.935,1.401 -1.55,1.819c-0.615,0.419 -1.328,0.628 -2.14,0.628c-0.82,0 -1.535,-0.209 -2.146,-0.628c-0.61,-0.418 -1.125,-1.024 -1.543,-1.819Z" style="fill-rule:nonzero;"/></svg>